<?xml version="1.0" encoding="UTF-8" standalone="no"?>
<!DOCTYPE svg PUBLIC "-//W3C//DTD SVG 1.1//EN" "http://www.w3.org/Graphics/SVG/1.1/DTD/svg11.dtd">
<svg width="100%" height="100%" viewBox="0 0 150 120" version="1.1" xmlns="http://www.w3.org/2000/svg" xmlns:xlink="http://www.w3.org/1999/xlink" xml:space="preserve" xmlns:serif="http://www.serif.com/" style="fill-rule:evenodd;clip-rule:evenodd;stroke-linejoin:round;stroke-miterlimit:2;">
    <g transform="matrix(0.0560609,0.00734518,-0.00734518,0.0560609,-7.22721,-87.9234)">
        <path d="M778.481,2066.15C785.209,1971.97 807.521,1894.63 839.091,1832.55C933.368,1647.13 1110.34,1578.08 1268.81,1591.8C1413.02,1604.28 1539.52,1686.92 1587.94,1807.39C1653.9,1971.53 1644.43,2136.61 1569.48,2256.04C1493.12,2377.72 1347.78,2460.86 1125.73,2441.23C1091.36,2438.19 1057.97,2432.45 1025.61,2424.48C1038.37,2467.76 1053.79,2513.54 1072.12,2561.9C1247.3,2945.33 1594.01,3129.7 1849.79,3083.98C2077.01,3043.37 2269.03,2841.92 2390.57,2375.57C2383.43,2376.41 2376.31,2377.15 2369.2,2377.8C2211.95,2392.25 2063.91,2362.01 1955.21,2271.43C1880.69,2209.33 1822.75,2118.66 1795.11,1989.67C1759.65,1824.19 1805.52,1691.33 1887.47,1600.23C2012.23,1461.54 2226.69,1419.76 2397.93,1511.62C2544.23,1590.1 2670.22,1773.24 2646.62,2096.62C2735.57,2057.57 2814.92,2009.18 2871.67,1961.35C2914.16,1925.53 2977.75,1930.95 3013.57,1973.45C3049.39,2015.95 3043.96,2079.53 3001.47,2115.35C2908.16,2194 2764.58,2274.04 2609.83,2325.44C2462.78,2978.37 2180.46,3229.47 1885.22,3282.24C1561.63,3340.08 1107.97,3128.58 887.417,2642.26C886.557,2640.37 885.756,2638.45 885.016,2636.5C841.281,2521.63 812.35,2418 795.417,2324.89C565.715,2181.67 427.962,1959.98 427.962,1959.98C399.031,1912.52 414.072,1850.51 461.529,1821.58C508.985,1792.65 571.001,1807.69 599.931,1855.14C599.931,1855.14 664.626,1963.89 778.481,2066.15ZM2436.37,2164.45C2467.44,1965.23 2437.76,1828.6 2370.8,1746.06C2273.83,1626.52 2099.54,1643.95 2022.45,1753.43C1988.23,1802.03 1975.08,1868.29 1992.05,1947.48C2008.48,2024.16 2039.84,2079.79 2084.15,2116.7C2153.68,2174.65 2250.19,2186.49 2350.77,2177.24C2379.06,2174.64 2407.71,2170.29 2436.37,2164.45ZM979.574,2198.3C1030.14,2220.08 1084.94,2235.43 1143.47,2240.61C1268.78,2251.69 1355.8,2217.65 1398.89,2148.98C1443.37,2078.11 1435.8,1977.85 1411.62,1918.26C1385.71,1854.37 1316.83,1798.11 1251.44,1792.45C1098.5,1779.22 950.673,1895.07 979.574,2198.3Z" style="fill:rgb(255,191,77);"/>
    </g>
</svg>
